<svg width="47" height="66" viewBox="0 0 47 66" fill="none" xmlns="http://www.w3.org/2000/svg">
<path d="M23.5493 0.609375C10.6277 0.609375 0.115234 11.1218 0.115234 24.0433C0.115234 40.0793 21.0864 63.6211 21.9793 64.6154C22.818 65.5495 24.2822 65.5479 25.1193 64.6154C26.0122 63.6211 46.9834 40.0793 46.9834 24.0433C46.9832 11.1218 36.4708 0.609375 23.5493 0.609375ZM23.5493 35.8336C17.0481 35.8336 11.7592 30.5445 11.7592 24.0433C11.7592 17.5421 17.0483 12.2532 23.5493 12.2532C30.0504 12.2532 35.3393 17.5423 35.3393 24.0435C35.3393 30.5446 30.0504 35.8336 23.5493 35.8336Z" fill="#65C466"/>
</svg>
