<svg width="18" height="12" viewBox="0 0 18 12" fill="none" xmlns="http://www.w3.org/2000/svg">
<path d="M17.7548 5.42665L12.3983 0.237454C12.0715 -0.0791515 11.5415 -0.0791515 11.2147 0.237454C10.8878 0.554125 10.8878 1.06747 11.2147 1.38414L15.1424 5.18918H0.836952C0.374754 5.18918 0 5.55223 0 5.99999C0 6.44769 0.374754 6.8108 0.836952 6.8108H15.1424L11.2148 10.6158C10.8879 10.9325 10.8879 11.4459 11.2148 11.7625C11.3782 11.9207 11.5925 12 11.8067 12C12.0208 12 12.235 11.9207 12.3985 11.7625L17.7548 6.57333C18.0817 6.25666 18.0817 5.74332 17.7548 5.42665Z" fill="#414141"/>
</svg>
