<svg width="25" height="22" viewBox="0 0 25 22" fill="none" xmlns="http://www.w3.org/2000/svg">
<path d="M25 8.30747C25 6.06299 23.9223 3.96113 21.9654 2.38921C20.0474 0.848535 17.5049 0 14.8066 0C12.1083 0 9.56592 0.848535 7.6479 2.38921C6.69697 3.15313 5.95435 4.04233 5.44136 5.01201C4.37725 5.35249 3.39883 5.86733 2.56182 6.5397C0.909863 7.8668 0 9.64297 0 11.5412C0 13.272 0.765625 14.9158 2.16284 16.1993L2.0251 21.2024C2.01836 21.4464 2.15864 21.6708 2.38096 21.7717C2.46128 21.8082 2.54668 21.8259 2.63149 21.8259C2.78135 21.8259 2.92925 21.7704 3.04375 21.6646L6.60786 18.3665C7.25156 18.4897 7.91318 18.5522 8.5792 18.5522C10.8059 18.5522 12.9065 17.8635 14.5092 16.6113C14.6082 16.6136 14.7072 16.6151 14.8067 16.6151C15.808 16.6151 16.7946 16.4976 17.7445 16.2653L20.8638 19.1518C20.9783 19.2577 21.1262 19.3132 21.2761 19.3132C21.3608 19.3132 21.4463 19.2954 21.5266 19.259C21.749 19.1581 21.8892 18.9337 21.8825 18.6896L21.764 14.3826C23.825 12.8145 25 10.6169 25 8.30747ZM8.57925 17.3384C7.89331 17.3384 7.21333 17.2638 6.5584 17.1165C6.36338 17.0727 6.15967 17.1275 6.01313 17.2631L3.27783 19.7943L3.38364 15.9495C3.38867 15.766 3.3104 15.59 3.17065 15.4709C1.90859 14.3954 1.21353 12.9998 1.21353 11.5412C1.21353 9.41797 2.67153 7.55801 4.84063 6.5481C4.69082 7.11948 4.61328 7.7083 4.61328 8.30742C4.61328 10.5519 5.69102 12.6537 7.6479 14.2257C9.0229 15.3302 10.7188 16.0788 12.5629 16.4143C11.4136 16.9983 10.0461 17.3384 8.57925 17.3384ZM20.7976 13.5867C20.6323 13.7039 20.5365 13.8958 20.542 14.0983L20.6296 17.2816L18.3252 15.1492C18.2116 15.0441 18.0639 14.9877 17.913 14.9877C17.8594 14.9877 17.8053 14.9948 17.7522 15.0094C16.8065 15.2695 15.8155 15.4013 14.8065 15.4013C9.85508 15.4013 5.82671 12.219 5.82671 8.30737C5.82671 4.39575 9.85513 1.21348 14.8066 1.21348C19.7582 1.21348 23.7865 4.3958 23.7865 8.30742C23.7865 10.3153 22.6971 12.2395 20.7976 13.5867Z" fill="#65C466"/>
<path d="M14.891 6.50488C13.8036 6.50488 12.9189 7.3895 12.9189 8.4769C12.9189 9.56431 13.8036 10.4489 14.891 10.4489C15.9784 10.4489 16.863 9.56431 16.863 8.4769C16.863 7.3895 15.9784 6.50488 14.891 6.50488ZM14.891 9.23535C14.4727 9.23535 14.1325 8.89512 14.1325 8.4769C14.1325 8.05869 14.4728 7.71846 14.891 7.71846C15.3092 7.71846 15.6494 8.05869 15.6494 8.4769C15.6494 8.89512 15.3092 9.23535 14.891 9.23535Z" fill="#65C466"/>
<path d="M20.0482 6.50488C18.9608 6.50488 18.0762 7.3895 18.0762 8.4769C18.0762 9.56431 18.9608 10.4489 20.0482 10.4489C21.1356 10.4489 22.0202 9.56431 22.0202 8.4769C22.0202 7.3895 21.1356 6.50488 20.0482 6.50488ZM20.0482 9.23535C19.6299 9.23535 19.2897 8.89512 19.2897 8.4769C19.2897 8.05869 19.63 7.71846 20.0482 7.71846C20.4664 7.71846 20.8066 8.05869 20.8066 8.4769C20.8066 8.89512 20.4665 9.23535 20.0482 9.23535Z" fill="#65C466"/>
<path d="M9.73374 6.50488C8.64639 6.50488 7.76172 7.3895 7.76172 8.4769C7.76172 9.56431 8.64639 10.4489 9.73374 10.4489C10.821 10.4489 11.7058 9.56431 11.7058 8.4769C11.7058 7.3895 10.8211 6.50488 9.73374 6.50488ZM9.73374 9.23535C9.31548 9.23535 8.97529 8.89512 8.97529 8.4769C8.97529 8.05869 9.31553 7.71846 9.73374 7.71846C10.152 7.71846 10.4922 8.05869 10.4922 8.4769C10.4922 8.89512 10.152 9.23535 9.73374 9.23535Z" fill="#65C466"/>
</svg>
