<svg width="19" height="19" viewBox="0 0 19 19" fill="none" xmlns="http://www.w3.org/2000/svg">
<path d="M17.5645 16.3076L1.91975 0.662913C1.55362 0.296786 0.97544 0.281396 0.628299 0.628537C0.281158 0.975678 0.296548 1.55386 0.662675 1.91999L16.3074 17.5647C16.6735 17.9308 17.2517 17.9462 17.5989 17.5991C17.946 17.252 17.9306 16.6738 17.5645 16.3076Z" fill="white"/>
<path d="M16.4209 0.776823L0.776194 16.4216C0.410067 16.7877 0.394677 17.3659 0.741818 17.713C1.08896 18.0602 1.66714 18.0448 2.03327 17.6786L17.678 2.0339C18.0441 1.66777 18.0595 1.08959 17.7124 0.742447C17.3652 0.395306 16.7871 0.410697 16.4209 0.776823Z" fill="white"/>
</svg>
