<svg width="475" height="475" viewBox="0 0 475 475" fill="none" xmlns="http://www.w3.org/2000/svg">
<path d="M461.084 279.249H442.675L395.365 163.293C408.969 156.404 418.408 142.436 418.408 126.172C418.408 118.48 412.184 112.256 404.492 112.256C396.8 112.256 390.576 118.48 390.576 126.172C390.576 133.85 384.338 140.088 376.66 140.088C369.416 140.088 365.856 137.425 358.477 131.405C348.583 123.332 335.021 112.256 307.08 112.256C288.119 112.256 275.436 117.434 266.832 124.353C262.524 120.089 257.238 116.896 251.416 114.82V109.693C267.579 103.929 279.248 88.6268 279.248 70.5081C279.248 52.7188 258.061 18.8425 248.957 5.64643C243.738 -1.88214 231.263 -1.88214 226.044 5.64643C216.939 18.8425 195.752 52.7188 195.752 70.5081C195.752 88.6268 207.421 103.929 223.584 109.693V114.82C217.762 116.896 212.476 120.089 208.168 124.353C199.564 117.434 186.881 112.256 167.92 112.256C139.979 112.256 126.417 123.332 116.523 131.405C109.144 137.425 105.584 140.088 98.3398 140.088C90.6619 140.088 84.4238 133.85 84.4238 126.172C84.4238 118.48 78.1997 112.256 70.5078 112.256C62.816 112.256 56.5918 118.48 56.5918 126.172C56.5918 142.436 66.0315 156.404 79.6349 163.293L32.325 279.249H13.916C6.22417 279.249 0 285.473 0 293.165C0 331.529 31.2155 362.745 69.5801 362.745H126.172C164.536 362.745 195.752 331.529 195.752 293.165C195.752 285.473 189.528 279.249 181.836 279.249H163.427L117.272 163.861C124.099 160.847 129.522 156.727 134.122 152.972C142.588 146.055 149.9 140.088 167.92 140.088C193.333 140.088 195.576 151.83 195.752 154.344C195.754 154.442 195.809 154.522 195.815 154.62C196.08 172.465 207.609 187.493 223.584 193.188V394.067C207.421 399.831 195.752 415.133 195.752 433.252C195.752 440.93 189.514 447.168 181.836 447.168H154.004C146.312 447.168 140.088 453.392 140.088 461.084C140.088 468.776 146.312 475 154.004 475H320.996C328.688 475 334.912 468.776 334.912 461.084C334.912 453.392 328.688 447.168 320.996 447.168H293.164C285.486 447.168 279.248 440.93 279.248 433.252C279.248 415.133 267.579 399.831 251.416 394.067V193.189C267.411 187.484 278.952 172.429 279.192 154.555C279.196 154.499 279.231 154.454 279.235 154.399C279.397 152.02 281.463 140.088 307.08 140.088C325.1 140.088 332.412 146.055 340.878 152.972C345.478 156.727 350.901 160.847 357.728 163.861L311.573 279.249H293.164C285.472 279.249 279.248 285.473 279.248 293.165C279.248 331.529 310.464 362.745 348.828 362.745H405.42C443.785 362.745 475 331.529 475 293.165C475 285.473 468.776 279.249 461.084 279.249ZM62.3048 279.249L98.3398 191.478L133.447 279.249H62.3048ZM341.553 279.249L376.66 191.478L412.695 279.249H341.553Z" fill="#FAFAFA"/>
</svg>
