<svg width="24" height="17" viewBox="0 0 24 17" fill="none" xmlns="http://www.w3.org/2000/svg">
<path d="M15.708 8.45556L23.373 13.3012V3.40527L15.708 8.45556Z" fill="#959AA6"/>
<path d="M0.636719 3.40527V13.3012L8.30167 8.45556L0.636719 3.40527Z" fill="#959AA6"/>
<path d="M21.9513 0.523438H2.0571C1.34801 0.523438 0.785287 1.05206 0.678711 1.73272L12.0042 9.19447L23.3297 1.73272C23.2231 1.05206 22.6604 0.523438 21.9513 0.523438Z" fill="#959AA6"/>
<path d="M14.4058 9.31392L12.3951 10.6383C12.2757 10.7165 12.1407 10.7548 12.0043 10.7548C11.8679 10.7548 11.7329 10.7165 11.6135 10.6383L9.60277 9.3125L0.681641 14.9554C0.791059 15.6303 1.35094 16.1547 2.05718 16.1547H21.9514C22.6576 16.1547 23.2175 15.6303 23.3269 14.9554L14.4058 9.31392Z" fill="#959AA6"/>
</svg>
