<svg width="85" height="85" viewBox="0 0 85 85" fill="none" xmlns="http://www.w3.org/2000/svg">
<g clip-path="url(#clip0)">
<path d="M43.2905 39.593C46.4131 39.593 48.9536 37.0524 48.9536 33.9297C48.9536 30.8069 46.4131 28.2664 43.2905 28.2664C40.1676 28.2664 37.627 30.8069 37.627 33.9297C37.627 37.0524 40.1676 39.593 43.2905 39.593ZM43.2905 31.098C44.8517 31.098 46.1219 32.3683 46.1219 33.9297C46.1219 35.4911 44.8517 36.7613 43.2905 36.7613C41.729 36.7613 40.4586 35.4911 40.4586 33.9297C40.4586 32.3683 41.729 31.098 43.2905 31.098Z" fill="#65C466"/>
<path d="M61.3046 48.9191H51.8288C56.2535 44.6956 60.2794 40.5558 60.2794 33.3449C60.2794 23.6293 52.9841 16.355 43.2897 16.355C33.5756 16.355 26.2995 23.6509 26.2995 33.3449C26.2995 40.5558 30.3256 44.6956 34.7503 48.9191H25.2744L20.0967 64.682H66.4823L61.3046 48.9191ZM29.1312 33.3449C29.1312 25.1411 35.0857 19.1866 43.2897 19.1866C51.4935 19.1866 57.4478 25.1411 57.4478 33.3449C57.4478 42.5231 49.7007 45.7738 43.2897 53.6784C41.363 51.303 39.3025 49.3423 37.2988 47.4359C32.7355 43.094 29.1312 39.6643 29.1312 33.3449ZM25.1545 58.3579H35.3608V55.5263H26.0846L27.3248 51.7507H37.6262V51.6871C41.3872 55.4167 42.4047 57.286 43.2897 58.4006C44.1966 57.2583 45.1808 55.4279 48.9528 51.6873V51.7507H59.2543L60.4945 55.5263H51.2181V58.3579H61.4245L62.5716 61.8503H24.0074L25.1545 58.3579Z" fill="#65C466"/>
</g>
<defs>
<clipPath id="clip0">
<rect width="48.327" height="48.327" fill="white" transform="translate(19.126 16.355)"/>
</clipPath>
</defs>
</svg>
