<svg width="13" height="13" viewBox="0 0 13 13" fill="none" xmlns="http://www.w3.org/2000/svg">
<path d="M11.9569 8.53301C11.1609 8.53301 10.3795 8.40853 9.6389 8.1638C9.27602 8.04003 8.82992 8.15357 8.60845 8.38104L7.14673 9.48448C5.45156 8.57959 4.40736 7.53573 3.51483 5.85328L4.58581 4.42965C4.86405 4.15177 4.96385 3.74586 4.84428 3.365C4.5985 2.62055 4.47365 1.83943 4.47365 1.04318C4.47368 0.467966 4.00572 0 3.43054 0H1.04315C0.467965 0 0 0.467966 0 1.04315C0 7.63625 5.36377 13 11.9569 13C12.532 13 13 12.532 13 11.9569V9.57613C13 9.00098 12.532 8.53301 11.9569 8.53301Z" fill="white"/>
</svg>
