<svg width="85" height="85" viewBox="0 0 85 85" fill="none" xmlns="http://www.w3.org/2000/svg">
<path d="M50.04 23.9916C49.5344 20.4485 46.4504 17.7764 42.8666 17.7764C40.5618 17.7764 38.3729 18.8885 37.012 20.7525C36.734 21.1326 36.8172 21.6659 37.1973 21.9439C37.5762 22.2208 38.1107 22.1387 38.3882 21.758C39.4299 20.3327 41.1038 19.4815 42.8664 19.4815C45.6072 19.4815 47.9652 21.524 48.3518 24.2322C48.4128 24.6575 48.7777 24.9645 49.195 24.9645C49.2347 24.9645 49.2757 24.9615 49.3164 24.956C49.7825 24.8893 50.1064 24.4574 50.04 23.9916Z" fill="#65C466"/>
<path d="M62.3529 33.5351L59.7954 29.2725C59.6415 29.0155 59.364 28.8586 59.0643 28.8586H56.6134C56.1429 28.8586 55.761 29.2405 55.761 29.7111C55.761 30.1816 56.1429 30.5635 56.6134 30.5635H58.5818L60.1163 33.121H25.6168L27.1513 30.5635H28.0542C28.5247 30.5635 28.9066 30.1816 28.9066 29.7111C28.9066 29.2405 28.5247 28.8586 28.0542 28.8586H26.6688C26.369 28.8586 26.0916 29.0155 25.9377 29.2725L23.3802 33.5351C23.2221 33.7989 23.2183 34.1268 23.3694 34.3941C23.5205 34.6613 23.8038 34.8266 24.1112 34.8266H61.6219C61.9293 34.8266 62.2123 34.6613 62.3637 34.3941C62.515 34.1268 62.511 33.7984 62.3529 33.5351Z" fill="#65C466"/>
<path d="M58.1035 25.6747C57.9841 25.4821 57.7935 25.3455 57.5732 25.2941L45.9516 22.5759C45.7316 22.5242 45.4998 22.5627 45.3075 22.6816C45.1157 22.801 44.9788 22.9915 44.9274 23.2118L44.051 26.9582C43.9436 27.4165 44.2283 27.8751 44.6869 27.982C45.1452 28.0894 45.6042 27.8047 45.7111 27.3461L46.3935 24.4302L56.3546 26.7602L54.7894 33.4525C54.682 33.9108 54.9667 34.3693 55.4253 34.4762C55.491 34.4915 55.5562 34.4987 55.6206 34.4987C56.0077 34.4987 56.3581 34.2335 56.4493 33.8406L58.2089 26.3183C58.2608 26.0983 58.2228 25.8665 58.1035 25.6747Z" fill="#65C466"/>
<path d="M43.3176 27.6898L42.5409 21.1198C42.5144 20.8953 42.3998 20.6902 42.2219 20.5504C42.0441 20.4105 41.8196 20.3466 41.594 20.373L27.3353 22.0584C26.868 22.1139 26.5338 22.5375 26.589 23.0053L27.884 33.963C27.9354 34.3968 28.3033 34.7157 28.7297 34.7157C28.7629 34.7157 28.7971 34.7135 28.8311 34.7098C29.2981 34.6543 29.6323 34.2307 29.5773 33.7629L28.3822 23.6511L40.9479 22.1661L41.6243 27.8893C41.6797 28.3569 42.1013 28.689 42.5711 28.6361C43.0384 28.5811 43.3726 28.1573 43.3176 27.6898Z" fill="#65C466"/>
<path d="M50.0604 33.6499L48.3683 26.6132C48.3154 26.3937 48.1773 26.2036 47.9847 26.0855C47.7921 25.9683 47.5611 25.9316 47.3401 25.9841L33.6065 29.2869C33.1487 29.3968 32.867 29.8573 32.9769 30.3151L33.8226 33.8323C33.9325 34.2906 34.393 34.5725 34.8506 34.4619C35.3084 34.352 35.5901 33.8915 35.4802 33.4336L34.8336 30.7452L46.9095 27.8415L48.4023 34.049C48.4959 34.4399 48.8456 34.7022 49.2305 34.7022C49.2967 34.7022 49.3636 34.6944 49.4308 34.6782C49.8886 34.568 50.1703 34.1077 50.0604 33.6499Z" fill="#65C466"/>
<path d="M62.4749 33.9305C62.4515 33.4775 62.0773 33.1218 61.6233 33.1218H24.1126C23.6585 33.1218 23.2844 33.4772 23.2609 33.9305L21.5558 67.1786C21.5438 67.4118 21.6282 67.6401 21.7891 67.8094C21.9502 67.9785 22.1735 68.0747 22.4072 68.0747H63.3279C63.5614 68.0747 63.7849 67.9788 63.9468 67.8094C64.1074 67.6401 64.1918 67.4121 64.18 67.1786L62.4749 33.9305ZM23.3044 66.3696L24.9221 34.8267H60.8128L62.4305 66.3696H23.3044Z" fill="#65C466"/>
<path d="M49.2607 36.5317C47.8503 36.5317 46.7031 37.6789 46.7031 39.0893C46.7031 40.4997 47.8503 41.6468 49.2607 41.6468C50.6711 41.6468 51.8182 40.4997 51.8182 39.0893C51.8182 37.6789 50.6711 36.5317 49.2607 36.5317ZM49.2607 39.942C48.7904 39.942 48.4082 39.5596 48.4082 39.0895C48.4082 38.6195 48.7906 38.2371 49.2607 38.2371C49.7307 38.2371 50.1131 38.6195 50.1131 39.0895C50.1131 39.5596 49.7307 39.942 49.2607 39.942Z" fill="#65C466"/>
<path d="M36.4745 36.5317C35.0641 36.5317 33.917 37.6789 33.917 39.0893C33.917 40.4997 35.0641 41.6468 36.4745 41.6468C37.8849 41.6468 39.0321 40.4997 39.0321 39.0893C39.0321 37.6789 37.8849 36.5317 36.4745 36.5317ZM36.4745 39.942C36.0045 39.942 35.6221 39.5596 35.6221 39.0895C35.6221 38.6195 36.0045 38.2371 36.4745 38.2371C36.9446 38.2371 37.327 38.6195 37.327 39.0895C37.327 39.5596 36.9446 39.942 36.4745 39.942Z" fill="#65C466"/>
<path d="M49.2612 39.0891H49.1955C48.725 39.0891 48.3431 39.471 48.3431 39.9415C48.3431 40.0579 48.3661 40.1691 48.4088 40.2702V44.6303C48.4088 47.6856 45.9229 50.1717 42.8674 50.1717C39.8118 50.1717 37.326 47.6858 37.326 44.6303V39.9418C37.326 39.4712 36.9441 39.0894 36.4735 39.0894C36.003 39.0894 35.6211 39.4712 35.6211 39.9418V44.6305C35.6211 48.6262 38.8717 51.8768 42.8674 51.8768C46.863 51.8768 50.1136 48.6262 50.1136 44.6305V39.9418C50.1136 39.4712 49.7318 39.0891 49.2612 39.0891Z" fill="#65C466"/>
</svg>
