<svg width="84" height="85" viewBox="0 0 84 85" fill="none" xmlns="http://www.w3.org/2000/svg">
<path d="M65.8673 23.4619H23.489C21.4538 23.4619 19.804 25.1118 19.804 27.147V56.6275H15.1976C14.6889 56.6275 14.2764 57.04 14.2764 57.5488C14.2764 59.584 15.9262 61.2339 17.9614 61.2339H44.6782V72.2891C44.6783 72.7978 45.0908 73.2102 45.5997 73.2101C45.8439 73.2101 46.078 73.113 46.2508 72.9404L51.127 68.0641L56.0033 72.9404C56.176 73.1131 56.4103 73.2103 56.6546 73.2103C56.7758 73.2107 56.8957 73.1869 57.0075 73.1403C57.3517 72.9976 57.576 72.6616 57.5759 72.2891V61.2339H60.3397C62.3749 61.2339 64.0248 59.584 64.0248 57.5488V28.0682H68.6311C69.1399 28.0682 69.5524 27.6558 69.5524 27.147C69.5524 25.1118 67.9025 23.4619 65.8673 23.4619ZM62.1822 27.147V56.6275H58.4972V58.4701H61.9344C61.6054 59.0399 60.9976 59.391 60.3397 59.3913H57.5759V58.4701H55.7334V70.0651L51.7784 66.1101C51.4186 65.7505 50.8355 65.7505 50.4757 66.1101L46.5207 70.0651V58.4701H44.6782V59.3913H17.9614C17.3035 59.391 16.6957 59.0399 16.3667 58.4701H20.7252H43.7569V56.6275H21.6465V27.147C21.6465 26.1293 22.4714 25.3044 23.489 25.3044H62.6945C62.3629 25.8622 62.186 26.4982 62.1822 27.147ZM64.2726 26.2257C64.7823 25.345 65.9095 25.0442 66.7903 25.554C67.0691 25.7153 67.3007 25.947 67.462 26.2257H64.2726Z" fill="#65C466"/>
<path d="M59.8114 52.2927L58.6312 50.1784L59.816 48.066C60.0656 47.6226 59.9087 47.0608 59.4654 46.8112C59.4431 46.7986 59.4202 46.7869 59.3968 46.7762L57.1977 45.7692L56.914 43.3647C56.854 42.8595 56.3956 42.4986 55.8904 42.5586C55.867 42.5614 55.8436 42.5651 55.8204 42.5697L53.4454 43.0404L51.8028 41.2615C51.4351 40.888 50.8343 40.8833 50.4608 41.251C50.4573 41.2545 50.4538 41.258 50.4504 41.2615L48.8077 43.0404L46.4327 42.5697C45.9336 42.471 45.4489 42.7956 45.3502 43.2947C45.3456 43.3179 45.3419 43.3412 45.3392 43.3647L45.0554 45.7692L42.8564 46.778C42.3938 46.9898 42.1904 47.5366 42.4022 47.9992C42.4129 48.0225 42.4245 48.0455 42.4372 48.0678L43.6219 50.1784L42.4372 52.2909C42.1875 52.7342 42.3445 53.296 42.7877 53.5456C42.8101 53.5582 42.833 53.5699 42.8564 53.5807L45.0554 54.5894L45.3392 56.9958C45.3992 57.501 45.8575 57.8619 46.3627 57.8019C46.3862 57.7991 46.4096 57.7955 46.4327 57.7908L48.8077 57.3201L50.4504 59.099C50.796 59.4725 51.3788 59.4951 51.7522 59.1496C51.7697 59.1334 51.7865 59.1165 51.8028 59.099L53.4454 57.3201L55.8204 57.7908C56.0722 57.8423 56.3339 57.7847 56.5409 57.6324C56.7468 57.4806 56.8802 57.2499 56.9094 56.9958L57.1931 54.5913L59.3922 53.5825C59.8548 53.3707 60.0581 52.8239 59.8464 52.3614C59.8357 52.338 59.8239 52.3151 59.8114 52.2927ZM56.7721 50.628L57.7201 52.3194L55.9586 53.1274C55.6666 53.2614 55.4655 53.5379 55.428 53.857L55.2013 55.7852L53.2971 55.4084C52.9833 55.3433 52.6584 55.4483 52.4421 55.6848L51.1266 57.111L49.811 55.6867C49.6367 55.4982 49.3916 55.3909 49.1348 55.3909C49.0747 55.3906 49.0148 55.3968 48.9561 55.4094L47.0518 55.7862L46.8252 53.858C46.7876 53.5389 46.5866 53.2624 46.2945 53.1283L44.5331 52.3204L45.4811 50.6289C45.6395 50.3479 45.6433 50.0067 45.4811 49.7279V49.7316L44.5331 48.0402L46.2945 47.2322C46.5866 47.0982 46.7876 46.8217 46.8252 46.5026L47.0518 44.5744L48.9561 44.9511C49.2698 45.0155 49.5943 44.9106 49.811 44.6748L51.1266 43.2459L52.4421 44.6702C52.6583 44.9068 52.9833 45.0118 53.2971 44.9465L55.2013 44.5697L55.428 46.498C55.4655 46.8171 55.6666 47.0936 55.9586 47.2276L57.7201 48.0355L56.7721 49.727C56.6152 50.0068 56.6152 50.3482 56.7721 50.628Z" fill="#65C466"/>
<path d="M51.1278 45.5725C48.5839 45.5725 46.5215 47.6349 46.5215 50.1788C46.5245 52.7215 48.5851 54.7821 51.1278 54.7852C53.6718 54.7852 55.7342 52.7228 55.7342 50.1788C55.7342 47.6349 53.6718 45.5725 51.1278 45.5725ZM51.1278 52.9426C49.6014 52.9426 48.364 51.7053 48.364 50.1788C48.364 48.6524 49.6014 47.415 51.1278 47.415C52.6542 47.415 53.8916 48.6524 53.8916 50.1788C53.8916 51.7053 52.6542 52.9426 51.1278 52.9426Z" fill="#65C466"/>
<path d="M49.2852 28.9895H34.5449V30.832H49.2852V28.9895Z" fill="#65C466"/>
<path d="M58.4967 34.5168H25.3311V36.3594H58.4967V34.5168Z" fill="#65C466"/>
<path d="M58.4967 38.2021H25.3311V40.0447H58.4967V38.2021Z" fill="#65C466"/>
<path d="M38.2294 50.1787H26.2529V52.0212H38.2294V50.1787Z" fill="#65C466"/>
</svg>
