<svg width="40" height="40" viewBox="0 0 40 40" fill="none" xmlns="http://www.w3.org/2000/svg">
<path d="M20.0968 0.0693359C9.31279 0.0693359 0.571289 8.81083 0.571289 19.5949C0.571289 30.3789 9.31279 39.1204 20.0968 39.1204C30.8794 39.1204 39.6209 30.3789 39.6209 19.5949C39.6209 8.81083 30.8794 0.0693359 20.0968 0.0693359ZM30.001 21.7071C30.9107 22.5954 31.873 23.4311 32.6903 24.4119C33.0527 24.8468 33.3939 25.2946 33.6526 25.7992C34.0235 26.5184 33.6895 27.3087 33.0456 27.3513L29.0444 27.3499C28.0111 27.4352 27.1895 27.0188 26.4959 26.3123C25.943 25.7495 25.4299 25.1482 24.8968 24.5668C24.6794 24.328 24.4505 24.1021 24.1762 23.9258C23.6318 23.5705 23.1571 23.6799 22.8458 24.2484C22.5274 24.8284 22.4535 25.4709 22.4236 26.1162C22.3796 27.06 22.0953 27.3058 21.1487 27.3499C19.1275 27.4451 17.2086 27.1382 15.4247 26.119C13.8513 25.2193 12.6346 23.9499 11.5728 22.5129C9.50613 19.7114 7.9241 16.637 6.50272 13.4744C6.18291 12.7623 6.41602 12.3813 7.20205 12.3671C8.5083 12.3415 9.81314 12.3444 11.1194 12.3657C11.651 12.3742 12.002 12.6784 12.2067 13.1788C12.9117 14.9143 13.7759 16.5659 14.8605 18.0982C15.149 18.5061 15.4446 18.9126 15.8639 19.2012C16.3273 19.5181 16.6798 19.4143 16.8987 18.8969C17.0394 18.5672 17.0991 18.2161 17.129 17.8636C17.2328 16.6568 17.2455 15.4501 17.0664 14.2476C16.9542 13.4957 16.5306 13.0096 15.7815 12.8675C15.3992 12.795 15.4546 12.6542 15.6408 12.4368C15.9635 12.0587 16.2648 11.8256 16.8689 11.8256L21.3888 11.8242C22.101 11.9649 22.2602 12.2847 22.3568 13.0011L22.3611 18.0243C22.3526 18.3014 22.5004 19.1244 22.9993 19.3063C23.3987 19.4385 23.6631 19.1187 23.9019 18.8657C24.9849 17.7144 25.7568 16.357 26.449 14.9526C26.7546 14.3329 27.0175 13.6919 27.2734 13.0494C27.4639 12.5747 27.7595 12.3401 28.2954 12.3486L32.6476 12.3543C32.7756 12.3543 32.9049 12.3543 33.0328 12.3771C33.7663 12.5022 33.9667 12.8177 33.7407 13.5341C33.3825 14.657 32.6889 15.5937 32.0109 16.5332C31.2831 17.5381 30.5085 18.5075 29.7878 19.5181C29.1269 20.4406 29.1795 20.9054 30.001 21.7071Z" fill="url(#paint0_linear)"/>
<defs>
<linearGradient id="paint0_linear" x1="20.0968" y1="0.0693359" x2="20.0968" y2="39.1204" gradientUnits="userSpaceOnUse">
<stop stop-color="white"/>
<stop offset="1" stop-color="white"/>
</linearGradient>
</defs>
</svg>
