<svg width="40" height="40" viewBox="0 0 40 40" fill="none" xmlns="http://www.w3.org/2000/svg">
<path d="M19.8595 0.0693359C9.0769 0.0693359 0.333984 8.81225 0.333984 19.5949C0.333984 30.376 9.0769 39.1204 19.8595 39.1204C30.6407 39.1204 39.385 30.376 39.385 19.5949C39.385 8.81225 30.6407 0.0693359 19.8595 0.0693359ZM32.0592 19.6147C32.0592 19.6147 32.0592 23.5747 31.5575 25.4837C31.2761 26.5284 30.4517 27.3528 29.4069 27.6342C27.4966 28.1374 19.8595 28.1374 19.8595 28.1374C19.8595 28.1374 12.2409 28.1374 10.3121 27.6143C9.26735 27.3329 8.44295 26.5085 8.16152 25.4638C7.65835 23.5748 7.65839 19.5949 7.65839 19.5949C7.65839 19.5949 7.65835 15.6348 8.16152 13.7259C8.44295 12.6798 9.28725 11.8355 10.3121 11.5555C12.221 11.0523 19.8595 11.0523 19.8595 11.0523C19.8595 11.0523 27.4966 11.0523 29.4069 11.5754C30.4517 11.8554 31.2761 12.6798 31.5575 13.7259C32.0806 15.6348 32.0592 19.6147 32.0592 19.6147Z" fill="url(#paint0_linear)"/>
<path d="M15.9697 24.3821L24.6473 20.044L15.9697 15.7046V24.3821Z" fill="url(#paint1_linear)"/>
<defs>
<linearGradient id="paint0_linear" x1="19.8595" y1="0.0693359" x2="19.8595" y2="39.1204" gradientUnits="userSpaceOnUse">
<stop stop-color="white"/>
<stop offset="1" stop-color="white"/>
</linearGradient>
<linearGradient id="paint1_linear" x1="20.3092" y1="15.7046" x2="20.3092" y2="24.3821" gradientUnits="userSpaceOnUse">
<stop stop-color="white"/>
<stop offset="1" stop-color="white"/>
</linearGradient>
</defs>
</svg>
