<svg width="43" height="42" viewBox="0 0 43 42" fill="none" xmlns="http://www.w3.org/2000/svg">
<path d="M25.3633 20.6797C25.3633 22.8587 23.598 24.6241 21.419 24.6241C19.24 24.6241 17.4746 22.8587 17.4746 20.6797C17.4746 18.5007 19.24 16.7354 21.419 16.7354C23.598 16.7354 25.3633 18.5007 25.3633 20.6797Z" fill="url(#paint0_linear)"/>
<path d="M30.6439 13.699C30.4549 13.1858 30.1521 12.7211 29.7598 12.3387C29.3775 11.9464 28.9127 11.6436 28.3982 11.4532C27.9817 11.2911 27.3548 11.0993 26.2007 11.0467C24.9527 10.9899 24.5789 10.9771 21.4192 10.9771C18.258 10.9771 17.8842 10.9884 16.6362 11.0467C15.482 11.0993 14.8566 11.2911 14.4388 11.4532C13.9256 11.6436 13.4594 11.9464 13.0785 12.3387C12.6848 12.7211 12.3835 13.1858 12.193 13.699C12.031 14.1169 11.8376 14.7437 11.785 15.8978C11.7282 17.1444 11.7168 17.5197 11.7168 20.6794C11.7168 23.8391 11.7282 24.2144 11.785 25.4623C11.8376 26.6165 12.031 27.2419 12.193 27.6598C12.3835 28.1729 12.6848 28.6377 13.0785 29.02C13.4594 29.4138 13.9242 29.7152 14.4388 29.9056C14.8566 30.0677 15.482 30.2609 16.6362 30.3135C17.8842 30.3704 18.258 30.3817 21.4192 30.3817C24.5789 30.3817 24.9527 30.3704 26.2007 30.3135C27.3548 30.2609 27.9817 30.0677 28.3982 29.9056C29.4301 29.5076 30.2459 28.6917 30.6439 27.6598C30.806 27.2419 30.9993 26.6165 31.0519 25.4623C31.1087 24.2144 31.1215 23.8391 31.1215 20.6794C31.1215 17.5197 31.1087 17.1444 31.0519 15.8978C30.9993 14.7437 30.8074 14.1169 30.6439 13.699ZM21.4192 26.7558C18.0619 26.7558 15.3413 24.0353 15.3413 20.6794C15.3413 17.3235 18.0619 14.6016 21.4192 14.6016C24.7751 14.6016 27.4956 17.3235 27.4956 20.6794C27.4956 24.0353 24.7751 26.7558 21.4192 26.7558ZM27.7358 15.7827C26.9526 15.7827 26.3158 15.1459 26.3158 14.3613C26.3158 13.5782 26.9526 12.9414 27.7358 12.9414C28.5204 12.9414 29.1572 13.5782 29.1572 14.3613C29.1558 15.1459 28.5204 15.7827 27.7358 15.7827Z" fill="url(#paint1_linear)"/>
<path d="M21.4196 0.0693359C10.0386 0.0693359 0.80957 9.29837 0.80957 20.6794C0.80957 32.0604 10.0386 41.2894 21.4196 41.2894C32.8006 41.2894 42.0296 32.0604 42.0296 20.6794C42.0296 9.29837 32.8006 0.0693359 21.4196 0.0693359ZM33.183 25.559C33.1261 26.8183 32.9257 27.6782 32.6329 28.4316C32.0174 30.0207 30.7609 31.2772 29.1718 31.8926C28.4185 32.1854 27.5585 32.3845 26.2992 32.4427C25.037 32.4996 24.6334 32.5138 21.4196 32.5138C18.2059 32.5138 17.8022 32.4996 16.54 32.4427C15.2806 32.3845 14.4207 32.1854 13.6674 31.8926C12.8771 31.5956 12.1621 31.1294 11.5708 30.5282C10.9696 29.9369 10.5034 29.2204 10.2063 28.4316C9.91351 27.6782 9.71311 26.8183 9.65625 25.559C9.59797 24.2968 9.58516 23.8931 9.58516 20.6794C9.58516 17.4656 9.59797 17.062 9.65625 15.7998C9.71311 14.5404 9.91351 13.6805 10.2063 12.9272C10.5034 12.1383 10.9696 11.4219 11.5708 10.8306C12.1621 10.2294 12.8771 9.76319 13.6674 9.46612C14.4207 9.17332 15.2806 8.97429 16.54 8.91602C17.8022 8.85916 18.2059 8.84496 21.4196 8.84496C24.6334 8.84496 25.037 8.85916 26.2992 8.91602C27.5585 8.97429 28.4185 9.17332 29.1718 9.46612C29.9607 9.76319 30.677 10.2294 31.2683 10.8306C31.8696 11.4219 32.3358 12.1383 32.6329 12.9272C32.9257 13.6805 33.1261 14.5404 33.183 15.7998C33.2412 17.062 33.254 17.4656 33.254 20.6794C33.254 23.8931 33.2412 24.2968 33.183 25.559Z" fill="url(#paint2_linear)"/>
<defs>
<linearGradient id="paint0_linear" x1="21.419" y1="16.7354" x2="21.419" y2="24.6241" gradientUnits="userSpaceOnUse">
<stop stop-color="white"/>
<stop offset="1" stop-color="white"/>
</linearGradient>
<linearGradient id="paint1_linear" x1="21.4192" y1="10.9771" x2="21.4192" y2="30.3817" gradientUnits="userSpaceOnUse">
<stop stop-color="white"/>
<stop offset="1" stop-color="white"/>
</linearGradient>
<linearGradient id="paint2_linear" x1="21.4196" y1="0.0693359" x2="21.4196" y2="41.2894" gradientUnits="userSpaceOnUse">
<stop stop-color="white"/>
<stop offset="1" stop-color="white"/>
</linearGradient>
</defs>
</svg>
