<svg width="66" height="66" viewBox="0 0 66 66" fill="none" xmlns="http://www.w3.org/2000/svg">
<path d="M33.1806 0.609375C15.3402 0.609375 0.827148 15.1224 0.827148 32.9628C0.827148 50.8032 15.3402 65.3162 33.1806 65.3162C51.021 65.3162 65.534 50.8032 65.534 32.9628C65.534 15.1224 51.021 0.609375 33.1806 0.609375ZM48.5674 49.6974C48.0416 50.2231 47.3515 50.4877 46.6613 50.4877C45.9712 50.4877 45.2805 50.2231 44.7553 49.6974L31.2745 36.2171C30.7675 35.7131 30.4846 35.0278 30.4846 34.311V16.7861C30.4846 15.2952 31.6921 14.0901 33.1806 14.0901C34.669 14.0901 35.8765 15.2952 35.8765 16.7861V33.1948L48.5674 45.8852C49.6214 46.9397 49.6214 48.6434 48.5674 49.6974Z" fill="#65C466"/>
</svg>
