<svg width="85" height="85" viewBox="0 0 85 85" fill="none" xmlns="http://www.w3.org/2000/svg">
<path d="M28.0803 53.1111C24.9155 53.1111 22.3418 55.6848 22.3418 58.8496C22.3418 62.0144 24.9155 64.5881 28.0803 64.5881C31.2451 64.5881 33.8188 62.0144 33.8188 58.8496C33.8188 55.6848 31.245 53.1111 28.0803 53.1111ZM28.0803 62.6752C25.9704 62.6752 24.2547 60.9594 24.2547 58.8496C24.2547 56.7397 25.9705 55.024 28.0803 55.024C30.1901 55.024 31.9059 56.7398 31.9059 58.8496C31.9059 60.9594 30.1901 62.6752 28.0803 62.6752Z" fill="#65C466"/>
<path d="M60.5989 53.1111C57.4341 53.1111 54.8604 55.6848 54.8604 58.8496C54.8604 62.0144 57.4341 64.5881 60.5989 64.5881C63.7637 64.5881 66.3374 62.0144 66.3374 58.8496C66.3374 55.6848 63.7637 53.1111 60.5989 53.1111ZM60.5989 62.6752C58.489 62.6752 56.7732 60.9594 56.7732 58.8496C56.7732 56.7397 58.4891 55.024 60.5989 55.024C62.7088 55.024 64.4245 56.7398 64.4245 58.8496C64.4245 60.9594 62.7088 62.6752 60.5989 62.6752Z" fill="#65C466"/>
<path d="M71.9242 47.8116L63.3165 34.4217C63.1405 34.1481 62.8373 33.9827 62.5121 33.9827H51.9915C51.4626 33.9827 51.0352 34.4111 51.0352 34.939V58.8495C51.0352 59.3784 51.4626 59.8058 51.9915 59.8058H55.8172V57.893H52.9479V35.8955H61.9899L70.1634 48.6101V57.8932H65.3813V59.806H71.1198C71.6487 59.806 72.0762 59.3785 72.0762 58.8496V48.3289C72.0763 48.1462 72.0238 47.9655 71.9242 47.8116Z" fill="#65C466"/>
<path d="M56.7731 46.4161V39.7212H64.4245V37.8083H55.8167C55.2878 37.8083 54.8604 38.2368 54.8604 38.7647V47.3725C54.8604 47.9014 55.2878 48.3289 55.8167 48.3289H70.163V46.416H56.7731V46.4161Z" fill="#65C466"/>
<path d="M51.9917 27.325H15.6478C15.1199 27.325 14.6914 27.7534 14.6914 28.2813V58.8867C14.6914 59.4157 15.1199 59.8431 15.6478 59.8431H23.2992V57.9303H16.6043V29.2377H51.0353V57.9303H32.8633V59.8431H51.9917C52.5206 59.8431 52.9481 59.4157 52.9481 58.8867V28.2813C52.9481 27.7534 52.5206 27.325 51.9917 27.325Z" fill="#65C466"/>
<path d="M21.386 54.0671H15.6475V55.98H21.386V54.0671Z" fill="#65C466"/>
<path d="M51.0355 54.0671H34.7764V55.98H51.0355V54.0671Z" fill="#65C466"/>
<path d="M71.1206 54.0671H67.2949V55.98H71.1206V54.0671Z" fill="#65C466"/>
<path d="M51.9913 31.1133H18.5166V33.0262H51.9913V31.1133Z" fill="#65C466"/>
<path d="M29.0389 57.8926H27.126V59.8055H29.0389V57.8926Z" fill="#65C466"/>
<path d="M61.5555 57.8926H59.6426V59.8055H61.5555V57.8926Z" fill="#65C466"/>
<path d="M31.9065 23.4619H18.5166V25.3748H31.9065V23.4619Z" fill="#65C466"/>
<path d="M16.6043 23.4619H14.6914V25.3748H16.6043V23.4619Z" fill="#65C466"/>
</svg>
