<svg width="48" height="47" viewBox="0 0 48 47" fill="none" xmlns="http://www.w3.org/2000/svg">
<path d="M47.8018 45.868L43.3888 35.7481C43.1504 35.0343 42.5805 34.4746 41.8628 34.251L30.4444 30.6174L29.2218 27.5607L32.8319 23.2282C32.9492 23.0867 33.0133 22.91 33.0133 22.7271V21.1636H33.795C35.0881 21.1636 36.1403 20.1113 36.1403 18.8183V15.6912C36.1403 14.3982 35.0881 13.346 33.795 13.346H33.0133V12.5642H33.795C34.0116 12.5642 34.2195 12.4743 34.3665 12.3156C34.5143 12.1569 34.5901 11.9435 34.5745 11.7269L34.0006 3.68652C33.8552 1.65082 32.1432 0.0560303 30.1012 0.0560303H18.9416C16.7863 0.0560303 15.0328 1.80952 15.0328 3.96483V11.7824C15.0328 12.214 15.3823 12.5642 15.8146 12.5642V13.346H15.0328C13.7398 13.346 12.6875 14.3982 12.6875 15.6912V18.8183C12.6875 20.1113 13.7398 21.1636 15.0328 21.1636H15.8146V22.7271C15.8146 22.91 15.8787 23.0867 15.9952 23.2274L19.592 27.5443L18.1653 30.7503L14.2252 31.9815L6.96426 34.251C6.2466 34.4746 5.6767 35.0343 5.46328 35.6832L1.02601 45.868C0.920472 46.1095 0.944706 46.3886 1.08855 46.6083C1.23396 46.8287 1.47943 46.9616 1.74288 46.9616H47.085C47.3484 46.9616 47.5939 46.8287 47.7393 46.6083C47.8831 46.3878 47.9074 46.1095 47.8018 45.868ZM33.0133 14.9095H33.795C34.2266 14.9095 34.5768 15.2605 34.5768 15.6912V18.8183C34.5768 19.249 34.2266 19.6 33.795 19.6H33.0133V14.9095ZM15.8146 19.6H15.0328C14.6013 19.6 14.251 19.249 14.251 18.8183V15.6912C14.251 15.2605 14.6013 14.9095 15.0328 14.9095H15.8146V19.6ZM30.1122 32.2169L32.9085 33.0909L27.8631 37.2545L25.8023 34.6794L30.1122 32.2169ZM26.4934 38.3044L24.4139 40.3839L22.3344 38.3044L24.4139 35.7051L26.4934 38.3044ZM19.8023 30.9184L20.9132 28.423L24.1231 29.7074C24.2169 29.7442 24.3154 29.7629 24.4139 29.7629C24.5124 29.7629 24.6109 29.7442 24.704 29.7074L27.8873 28.4339L28.9075 30.9856L24.4139 33.5529L19.8023 30.9184ZM16.5963 3.96483C16.5963 2.6718 17.6486 1.61955 18.9416 1.61955H30.1012C31.3255 1.61955 32.3535 2.57643 32.441 3.79753L32.9554 11.0007H31.4498H27.541C23.9097 11.0007 22.0686 9.68575 22.0686 7.09187C22.0686 6.66034 21.7192 6.31011 21.2869 6.31011C20.8546 6.31011 20.5051 6.66034 20.5051 7.09187C20.5051 9.24718 18.7516 11.0007 16.5963 11.0007V3.96483ZM17.3781 22.4441V12.5048C19.0198 12.2687 20.4301 11.3032 21.2642 9.94608C22.3313 11.6378 24.4937 12.5642 27.541 12.5642H31.4498V22.4441L27.849 26.7649L24.4139 28.1392L20.9789 26.7656L17.3781 22.4441ZM18.7423 32.2075L23.2241 34.6888L21.172 37.2537L16.0694 33.0432L18.7423 32.2075ZM20.6771 45.3981H2.93585L6.92283 36.2414C7.00178 36.0037 7.19175 35.8176 7.43019 35.7426L14.287 33.5998L20.7623 38.9439L21.9842 40.1658L20.6771 45.3981ZM22.2883 45.3981L23.2733 41.4549L23.8604 42.042C24.0137 42.1945 24.2138 42.2711 24.4139 42.2711C24.6141 42.2711 24.8142 42.1945 24.9666 42.042L25.5537 41.4549L26.5395 45.3981H22.2883ZM28.1507 45.3981L26.8429 40.1658L27.8889 39.1198C28.0186 39.0956 28.1429 39.051 28.2461 38.9658L34.6909 33.6475L35.0287 33.753L32.2714 42.024C32.1877 42.2758 32.2362 42.5525 32.402 42.7597L34.5127 45.3981H28.1507ZM33.8896 42.1147L36.521 34.2189L37.7797 34.6122L38.4582 42.7565L36.2052 45.0096L33.8896 42.1147ZM38.0275 45.3981L39.8201 43.6055C39.9827 43.4429 40.0648 43.217 40.046 42.9879L39.3901 35.1156L41.3977 35.7426C41.6369 35.8169 41.8269 36.0029 41.9308 36.3062L45.892 45.3981H38.0275Z" fill="white"/>
</svg>
