<svg width="70" height="70" viewBox="0 0 70 70" fill="none" xmlns="http://www.w3.org/2000/svg">
<g filter="url(#filter0_d)">
<circle cx="35.1752" cy="34.7247" r="20.4637" fill="white"/>
</g>
<path d="M28.1834 39.8298C26.6389 39.8298 25.3828 41.0859 25.3828 42.6304C25.3828 44.175 26.6389 45.431 28.1834 45.431C29.728 45.431 30.984 44.175 30.984 42.6304C30.984 41.0859 29.7279 39.8298 28.1834 39.8298ZM28.1834 44.4975C27.1537 44.4975 26.3164 43.6601 26.3164 42.6304C26.3164 41.6007 27.1538 40.7634 28.1834 40.7634C29.2131 40.7634 30.0505 41.6008 30.0505 42.6304C30.0505 43.6601 29.2131 44.4975 28.1834 44.4975Z" fill="#65C466"/>
<path d="M44.053 39.8298C42.5085 39.8298 41.2524 41.0859 41.2524 42.6304C41.2524 44.175 42.5085 45.431 44.053 45.431C45.5976 45.431 46.8536 44.175 46.8536 42.6304C46.8536 41.0859 45.5976 39.8298 44.053 39.8298ZM44.053 44.4975C43.0233 44.4975 42.186 43.6601 42.186 42.6304C42.186 41.6007 43.0234 40.7634 44.053 40.7634C45.0828 40.7634 45.9201 41.6008 45.9201 42.6304C45.9201 43.6601 45.0828 44.4975 44.053 44.4975Z" fill="#65C466"/>
<path d="M49.5809 37.2436L45.38 30.7089C45.2941 30.5754 45.1461 30.4946 44.9874 30.4946H39.853C39.5949 30.4946 39.3862 30.7037 39.3862 30.9614V42.6305C39.3862 42.8887 39.5949 43.0973 39.853 43.0973H41.72V42.1637H40.3197V31.4282H44.7325L48.7215 37.6334V42.1638H46.3877V43.0973H49.1883C49.4464 43.0973 49.655 42.8887 49.655 42.6306V37.4961C49.6551 37.407 49.6294 37.3187 49.5809 37.2436Z" fill="#65C466"/>
<path d="M42.1859 36.5625V33.2951H45.9201V32.3616H41.7192C41.4611 32.3616 41.2524 32.5707 41.2524 32.8283V37.0292C41.2524 37.2873 41.4611 37.496 41.7192 37.496H48.7207V36.5624H42.1859V36.5625Z" fill="#65C466"/>
<path d="M39.8523 27.2454H22.1152C21.8576 27.2454 21.6484 27.4545 21.6484 27.7121V42.6487C21.6484 42.9068 21.8576 43.1154 22.1152 43.1154H25.8493V42.1819H22.582V28.1789H39.3856V42.1819H30.517V43.1154H39.8523C40.1105 43.1154 40.3191 42.9068 40.3191 42.6487V27.7121C40.3191 27.4545 40.1105 27.2454 39.8523 27.2454Z" fill="#65C466"/>
<path d="M24.9158 40.2966H22.1152V41.2302H24.9158V40.2966Z" fill="#65C466"/>
<path d="M39.3857 40.2966H31.4507V41.2302H39.3857V40.2966Z" fill="#65C466"/>
<path d="M49.1883 40.2966H47.3213V41.2302H49.1883V40.2966Z" fill="#65C466"/>
<path d="M39.853 29.0942H23.5161V30.0278H39.853V29.0942Z" fill="#65C466"/>
<path d="M28.6499 42.1636H27.7163V43.0971H28.6499V42.1636Z" fill="#65C466"/>
<path d="M44.52 42.1636H43.5864V43.0971H44.52V42.1636Z" fill="#65C466"/>
<path d="M30.0509 25.3599H23.5161V26.2934H30.0509V25.3599Z" fill="#65C466"/>
<path d="M22.582 25.3599H21.6484V26.2934H22.582V25.3599Z" fill="#65C466"/>
<defs>
<filter id="filter0_d" x="0.83771" y="0.387271" width="68.6749" height="68.6749" filterUnits="userSpaceOnUse" color-interpolation-filters="sRGB">
<feFlood flood-opacity="0" result="BackgroundImageFix"/>
<feColorMatrix in="SourceAlpha" type="matrix" values="0 0 0 0 0 0 0 0 0 0 0 0 0 0 0 0 0 0 127 0"/>
<feOffset/>
<feGaussianBlur stdDeviation="6.93686"/>
<feColorMatrix type="matrix" values="0 0 0 0 0.870833 0 0 0 0 0.870833 0 0 0 0 0.870833 0 0 0 1 0"/>
<feBlend mode="normal" in2="BackgroundImageFix" result="effect1_dropShadow"/>
<feBlend mode="normal" in="SourceGraphic" in2="effect1_dropShadow" result="shape"/>
</filter>
</defs>
</svg>
