<svg width="70" height="70" viewBox="0 0 70 70" fill="none" xmlns="http://www.w3.org/2000/svg">
<g filter="url(#filter0_d)">
<circle cx="35.1752" cy="34.7247" r="20.4637" fill="white"/>
</g>
<path d="M39.0184 25.6187C38.7717 23.8896 37.2666 22.5854 35.5175 22.5854C34.3927 22.5854 33.3245 23.1282 32.6603 24.0379C32.5246 24.2234 32.5652 24.4837 32.7507 24.6193C32.9356 24.7545 33.1965 24.7144 33.3319 24.5286C33.8403 23.833 34.6572 23.4176 35.5174 23.4176C36.8551 23.4176 38.0058 24.4144 38.1945 25.7361C38.2243 25.9437 38.4024 26.0935 38.606 26.0935C38.6254 26.0935 38.6454 26.092 38.6653 26.0893C38.8927 26.0568 39.0508 25.8461 39.0184 25.6187Z" fill="#65C466"/>
<path d="M45.0286 30.2762L43.7804 28.1959C43.7053 28.0704 43.5699 27.9939 43.4236 27.9939H42.2275C41.9979 27.9939 41.8115 28.1803 41.8115 28.4099C41.8115 28.6396 41.9979 28.8259 42.2275 28.8259H43.1881L43.937 30.0741H27.1L27.8489 28.8259H28.2895C28.5192 28.8259 28.7056 28.6396 28.7056 28.4099C28.7056 28.1803 28.5192 27.9939 28.2895 27.9939H27.6134C27.4671 27.9939 27.3317 28.0704 27.2566 28.1959L26.0085 30.2762C25.9313 30.4049 25.9295 30.565 26.0032 30.6954C26.077 30.8258 26.2152 30.9065 26.3652 30.9065H44.6718C44.8218 30.9065 44.9599 30.8258 45.0338 30.6954C45.1077 30.565 45.1057 30.4047 45.0286 30.2762Z" fill="#65C466"/>
<path d="M42.9546 26.44C42.8964 26.346 42.8034 26.2794 42.6958 26.2543L37.0241 24.9277C36.9167 24.9025 36.8036 24.9213 36.7097 24.9793C36.6161 25.0375 36.5493 25.1305 36.5242 25.2381L36.0965 27.0664C36.0441 27.2901 36.183 27.5139 36.4068 27.5661C36.6305 27.6185 36.8546 27.4795 36.9067 27.2557L37.2397 25.8326L42.1011 26.9698L41.3372 30.2359C41.2848 30.4595 41.4238 30.6833 41.6476 30.7355C41.6796 30.7429 41.7115 30.7465 41.7429 30.7465C41.9318 30.7465 42.1028 30.617 42.1473 30.4253L43.0061 26.7541C43.0314 26.6468 43.0129 26.5336 42.9546 26.44Z" fill="#65C466"/>
<path d="M35.7379 27.4233L35.3588 24.2169C35.3459 24.1073 35.2899 24.0073 35.2032 23.939C35.1164 23.8708 35.0068 23.8395 34.8967 23.8525L27.9379 24.675C27.7099 24.7021 27.5468 24.9088 27.5737 25.1371L28.2057 30.4848C28.2308 30.6966 28.4104 30.8522 28.6184 30.8522C28.6347 30.8522 28.6514 30.8511 28.6679 30.8493C28.8959 30.8222 29.059 30.6155 29.0321 30.3872L28.4489 25.4523L34.5814 24.7275L34.9115 27.5207C34.9385 27.7489 35.1443 27.911 35.3736 27.8851C35.6016 27.8583 35.7647 27.6515 35.7379 27.4233Z" fill="#65C466"/>
<path d="M39.0282 30.3322L38.2024 26.898C38.1765 26.7909 38.1091 26.6981 38.0151 26.6405C37.9212 26.5833 37.8084 26.5654 37.7005 26.591L30.9981 28.2029C30.7747 28.2565 30.6372 28.4813 30.6908 28.7047L31.1035 30.4212C31.1572 30.6449 31.3819 30.7825 31.6052 30.7285C31.8287 30.6749 31.9661 30.4501 31.9125 30.2267L31.5969 28.9146L37.4904 27.4975L38.219 30.527C38.2647 30.7178 38.4353 30.8457 38.6231 30.8457C38.6554 30.8457 38.6881 30.842 38.7209 30.834C38.9443 30.7803 39.0818 30.5556 39.0282 30.3322Z" fill="#65C466"/>
<path d="M45.0868 30.4691C45.0753 30.248 44.8927 30.0745 44.6711 30.0745H26.3646C26.143 30.0745 25.9604 30.2479 25.9489 30.4691L25.1168 46.6954C25.1109 46.8092 25.1521 46.9206 25.2306 47.0033C25.3092 47.0858 25.4182 47.1327 25.5323 47.1327H45.503C45.617 47.1327 45.7261 47.0859 45.8051 47.0033C45.8835 46.9206 45.9247 46.8093 45.9189 46.6954L45.0868 30.4691ZM25.9701 46.3006L26.7596 30.9065H44.2756L45.0651 46.3006H25.9701Z" fill="#65C466"/>
<path d="M38.6383 31.7385C37.95 31.7385 37.3901 32.2984 37.3901 32.9867C37.3901 33.675 37.95 34.2349 38.6383 34.2349C39.3266 34.2349 39.8865 33.675 39.8865 32.9867C39.8865 32.2984 39.3266 31.7385 38.6383 31.7385ZM38.6383 33.4028C38.4088 33.4028 38.2223 33.2162 38.2223 32.9868C38.2223 32.7574 38.4089 32.5708 38.6383 32.5708C38.8677 32.5708 39.0543 32.7574 39.0543 32.9868C39.0543 33.2162 38.8677 33.4028 38.6383 33.4028Z" fill="#65C466"/>
<path d="M32.3976 31.7385C31.7093 31.7385 31.1494 32.2984 31.1494 32.9867C31.1494 33.675 31.7093 34.2349 32.3976 34.2349C33.0859 34.2349 33.6458 33.675 33.6458 32.9867C33.6458 32.2984 33.0859 31.7385 32.3976 31.7385ZM32.3976 33.4028C32.1682 33.4028 31.9816 33.2162 31.9816 32.9868C31.9816 32.7574 32.1682 32.5708 32.3976 32.5708C32.627 32.5708 32.8136 32.7574 32.8136 32.9868C32.8136 33.2162 32.627 33.4028 32.3976 33.4028Z" fill="#65C466"/>
<path d="M38.6388 32.9866H38.6068C38.3771 32.9866 38.1907 33.1729 38.1907 33.4026C38.1907 33.4594 38.2019 33.5136 38.2228 33.563V35.6909C38.2228 37.182 37.0096 38.3953 35.5184 38.3953C34.0272 38.3953 32.814 37.1821 32.814 35.6909V33.4027C32.814 33.1731 32.6276 32.9867 32.398 32.9867C32.1683 32.9867 31.9819 33.1731 31.9819 33.4027V35.691C31.9819 37.641 33.5684 39.2274 35.5184 39.2274C37.4684 39.2274 39.0548 37.641 39.0548 35.691V33.4027C39.0548 33.1731 38.8685 32.9866 38.6388 32.9866Z" fill="#65C466"/>
<defs>
<filter id="filter0_d" x="0.83771" y="0.387271" width="68.6749" height="68.6749" filterUnits="userSpaceOnUse" color-interpolation-filters="sRGB">
<feFlood flood-opacity="0" result="BackgroundImageFix"/>
<feColorMatrix in="SourceAlpha" type="matrix" values="0 0 0 0 0 0 0 0 0 0 0 0 0 0 0 0 0 0 127 0"/>
<feOffset/>
<feGaussianBlur stdDeviation="6.93686"/>
<feColorMatrix type="matrix" values="0 0 0 0 0.870833 0 0 0 0 0.870833 0 0 0 0 0.870833 0 0 0 1 0"/>
<feBlend mode="normal" in2="BackgroundImageFix" result="effect1_dropShadow"/>
<feBlend mode="normal" in="SourceGraphic" in2="effect1_dropShadow" result="shape"/>
</filter>
</defs>
</svg>
