<svg width="70" height="70" viewBox="0 0 70 70" fill="none" xmlns="http://www.w3.org/2000/svg">
<g filter="url(#filter0_d)">
<circle cx="35.1756" cy="34.7247" r="20.4637" fill="white"/>
</g>
<g clip-path="url(#clip0)">
<path d="M35.5228 33.2326C37.0468 33.2326 38.2866 31.9928 38.2866 30.4687C38.2866 28.9447 37.0468 27.7048 35.5228 27.7048C33.9987 27.7048 32.7588 28.9447 32.7588 30.4687C32.7588 31.9928 33.9987 33.2326 35.5228 33.2326ZM35.5228 29.0868C36.2847 29.0868 36.9046 29.7067 36.9046 30.4687C36.9046 31.2307 36.2847 31.8507 35.5228 31.8507C34.7607 31.8507 34.1407 31.2307 34.1407 30.4687C34.1407 29.7067 34.7607 29.0868 35.5228 29.0868Z" fill="#65C466"/>
<path d="M44.3151 37.7841H39.6905C41.8499 35.7229 43.8147 33.7025 43.8147 30.1833C43.8147 25.4417 40.2544 21.8916 35.5231 21.8916C30.7823 21.8916 27.2313 25.4523 27.2313 30.1833C27.2313 33.7025 29.1962 35.7229 31.3556 37.7841H26.731L24.2041 45.4769H46.842L44.3151 37.7841ZM28.6133 30.1833C28.6133 26.1795 31.5193 23.2736 35.5231 23.2736C39.5269 23.2736 42.4328 26.1795 42.4328 30.1833C42.4328 34.6626 38.652 36.2491 35.5231 40.1068C34.5828 38.9475 33.5772 37.9906 32.5994 37.0602C30.3723 34.9412 28.6133 33.2674 28.6133 30.1833ZM26.6725 42.3906H31.6536V41.0086H27.1264L27.7317 39.166H32.7591V39.135C34.5946 40.9551 35.0912 41.8674 35.5231 42.4114C35.9657 41.8539 36.4461 40.9606 38.2869 39.135V39.166H43.3144L43.9197 41.0086H39.3925V42.3906H44.3736L44.9334 44.095H26.1127L26.6725 42.3906Z" fill="#65C466"/>
</g>
<defs>
<filter id="filter0_d" x="0.838199" y="0.387271" width="68.6749" height="68.6749" filterUnits="userSpaceOnUse" color-interpolation-filters="sRGB">
<feFlood flood-opacity="0" result="BackgroundImageFix"/>
<feColorMatrix in="SourceAlpha" type="matrix" values="0 0 0 0 0 0 0 0 0 0 0 0 0 0 0 0 0 0 127 0"/>
<feOffset/>
<feGaussianBlur stdDeviation="6.93686"/>
<feColorMatrix type="matrix" values="0 0 0 0 0.870833 0 0 0 0 0.870833 0 0 0 0 0.870833 0 0 0 1 0"/>
<feBlend mode="normal" in2="BackgroundImageFix" result="effect1_dropShadow"/>
<feBlend mode="normal" in="SourceGraphic" in2="effect1_dropShadow" result="shape"/>
</filter>
<clipPath id="clip0">
<rect width="23.5853" height="23.5853" fill="white" transform="translate(23.7305 21.8916)"/>
</clipPath>
</defs>
</svg>
