<svg width="23" height="23" viewBox="0 0 23 23" fill="none" xmlns="http://www.w3.org/2000/svg">
<path d="M16.1707 22.5C15.4444 22.5 14.7242 22.3716 14.02 22.1157C10.9177 20.9888 8.03808 19.1532 5.69237 16.8076C3.34667 14.4619 1.51115 11.5823 0.384223 8.47995C0.0220844 7.48296 -0.0847862 6.4538 0.066687 5.42095C0.20858 4.45349 0.58333 3.51429 1.15046 2.70485C1.7201 1.89185 2.47953 1.21565 3.34663 0.749368C4.27129 0.252148 5.28054 0 6.34643 0C6.67794 0 6.96445 0.231626 7.03392 0.555753L8.13752 5.70588C8.18748 5.93909 8.11581 6.18175 7.9472 6.3504L6.06145 8.2361C7.84037 11.7729 10.7269 14.6595 14.2638 16.4384L16.1495 14.5527C16.3181 14.3841 16.5608 14.3125 16.794 14.3624L21.9441 15.4659C22.2683 15.5354 22.4999 15.8219 22.4999 16.1534C22.4999 17.2193 22.2477 18.2286 21.7505 19.1533C21.2842 20.0204 20.608 20.7798 19.795 21.3495C18.9856 21.9166 18.0464 22.2913 17.0789 22.4332C16.7757 22.4777 16.4726 22.4999 16.1707 22.5ZM5.78466 1.43695C4.37868 1.59216 3.13078 2.32909 2.30209 3.51183C1.37023 4.84178 1.15293 6.47757 1.70591 7.99986C3.8725 13.9641 8.53582 18.6275 14.5001 20.7941C16.0223 21.347 17.6582 21.1298 18.9881 20.1979C20.1709 19.3692 20.9078 18.1213 21.063 16.7153L16.8734 15.8175L14.904 17.7869C14.6945 17.9965 14.376 18.0522 14.1079 17.9261C9.92492 15.961 6.53899 12.575 4.57384 8.39206C4.44785 8.12387 4.50348 7.80546 4.71305 7.59594L6.68242 5.62657L5.78466 1.43695Z" fill="#C2C1C2"/>
<path d="M21.7964 11.9526C21.4081 11.9526 21.0933 11.6378 21.0933 11.2495C21.0933 5.82189 16.6776 1.40619 11.25 1.40619C10.8617 1.40619 10.5469 1.09138 10.5469 0.703095C10.5469 0.314811 10.8617 0 11.25 0C14.2549 0 17.0799 1.17013 19.2046 3.29488C21.3294 5.41964 22.4995 8.24463 22.4995 11.2495C22.4995 11.6378 22.1847 11.9526 21.7964 11.9526Z" fill="#C2C1C2"/>
<path d="M18.984 11.9525C18.5957 11.9525 18.2809 11.6377 18.2809 11.2494C18.2809 7.37253 15.1268 4.21845 11.25 4.21845C10.8617 4.21845 10.5469 3.90364 10.5469 3.51535C10.5469 3.12707 10.8617 2.81226 11.25 2.81226C15.9022 2.81226 19.6871 6.59715 19.6871 11.2494C19.6871 11.6377 19.3723 11.9525 18.984 11.9525Z" fill="#C2C1C2"/>
<path d="M16.1716 11.9526C15.7834 11.9526 15.4685 11.6378 15.4685 11.2495C15.4685 8.92337 13.5761 7.03095 11.25 7.03095C10.8617 7.03095 10.5469 6.71614 10.5469 6.32785C10.5469 5.93957 10.8617 5.62476 11.25 5.62476C14.3515 5.62476 16.8747 8.14799 16.8747 11.2495C16.8747 11.6378 16.56 11.9526 16.1716 11.9526Z" fill="#C2C1C2"/>
</svg>
