<svg width="70" height="70" viewBox="0 0 70 70" fill="none" xmlns="http://www.w3.org/2000/svg">
<g filter="url(#filter0_d)">
<circle cx="35.1747" cy="34.7247" r="20.4637" fill="white"/>
</g>
<path d="M46.8267 25.3599H26.1446C25.1513 25.3599 24.3461 26.1651 24.3461 27.1583V41.5459H22.098C21.8498 41.5459 21.6484 41.7472 21.6484 41.9955C21.6484 42.9887 22.4536 43.7939 23.4469 43.7939H36.4856V49.1893C36.4857 49.4376 36.687 49.6388 36.9353 49.6388C37.0545 49.6388 37.1688 49.5914 37.2531 49.5071L39.6329 47.1274L42.0127 49.5071C42.097 49.5914 42.2113 49.6389 42.3306 49.6389C42.3897 49.6391 42.4482 49.6275 42.5028 49.6047C42.6708 49.5351 42.7802 49.3711 42.7802 49.1893V43.7939H44.129C45.1223 43.7939 45.9275 42.9887 45.9275 41.9955V27.6079H48.1755C48.4238 27.6079 48.6251 27.4066 48.6251 27.1583C48.6251 26.1651 47.8199 25.3599 46.8267 25.3599ZM45.0282 27.1583V41.5459H43.2298V42.4451H44.9073C44.7467 42.7232 44.4501 42.8945 44.129 42.8947H42.7802V42.4451H41.881V48.1039L39.9508 46.1737C39.7752 45.9982 39.4906 45.9982 39.315 46.1737L37.3848 48.1039V42.4451H36.4856V42.8947H23.4469C23.1258 42.8945 22.8292 42.7232 22.6686 42.4451H24.7957H36.036V41.5459H25.2453V27.1583C25.2453 26.6617 25.6479 26.2591 26.1446 26.2591H45.2782C45.1164 26.5313 45.0301 26.8417 45.0282 27.1583ZM46.0484 26.7087C46.2972 26.2789 46.8473 26.1321 47.2771 26.3809C47.4132 26.4596 47.5262 26.5727 47.605 26.7087H46.0484Z" fill="#65C466"/>
<path d="M43.8712 39.4306L43.2952 38.3987L43.8734 37.3677C43.9953 37.1514 43.9187 36.8772 43.7024 36.7554C43.6915 36.7492 43.6803 36.7435 43.6689 36.7383L42.5957 36.2469L42.4572 35.0734C42.4279 34.8268 42.2042 34.6507 41.9577 34.68C41.9462 34.6813 41.9348 34.6831 41.9235 34.6854L40.7644 34.9151L39.9627 34.0469C39.7833 33.8646 39.4901 33.8623 39.3078 34.0418C39.3061 34.0435 39.3044 34.0452 39.3027 34.0469L38.501 34.9151L37.3419 34.6854C37.0984 34.6372 36.8618 34.7956 36.8136 35.0392C36.8114 35.0505 36.8096 35.0619 36.8083 35.0734L36.6698 36.2469L35.5965 36.7392C35.3708 36.8425 35.2715 37.1094 35.3749 37.3351C35.3801 37.3465 35.3858 37.3577 35.392 37.3686L35.9702 38.3987L35.392 39.4297C35.2701 39.646 35.3467 39.9202 35.5631 40.042C35.574 40.0482 35.5851 40.0539 35.5965 40.0591L36.6698 40.5514L36.8083 41.7258C36.8375 41.9724 37.0612 42.1485 37.3078 42.1192C37.3192 42.1179 37.3306 42.1161 37.3419 42.1138L38.501 41.8841L39.3027 42.7523C39.4714 42.9345 39.7558 42.9456 39.9381 42.777C39.9466 42.769 39.9548 42.7608 39.9627 42.7523L40.7644 41.8841L41.9235 42.1138C42.0463 42.139 42.1741 42.1109 42.2751 42.0365C42.3756 41.9624 42.4407 41.8499 42.4549 41.7258L42.5934 40.5523L43.6666 40.06C43.8924 39.9567 43.9916 39.6898 43.8883 39.464C43.8831 39.4526 43.8773 39.4415 43.8712 39.4306ZM42.3879 38.6181L42.8506 39.4436L41.9909 39.8379C41.8484 39.9033 41.7503 40.0383 41.7319 40.194L41.6213 41.135L40.692 40.9511C40.5388 40.9193 40.3803 40.9706 40.2748 41.086L39.6327 41.782L38.9907 41.0869C38.9056 40.9949 38.786 40.9426 38.6607 40.9426C38.6313 40.9424 38.6021 40.9455 38.5734 40.9516L37.6441 41.1355L37.5335 40.1944C37.5152 40.0387 37.417 39.9038 37.2745 39.8384L36.4148 39.444L36.8775 38.6186C36.9548 38.4814 36.9567 38.3149 36.8775 38.1788V38.1806L36.4148 37.3551L37.2745 36.9608C37.417 36.8954 37.5152 36.7605 37.5335 36.6047L37.6441 35.6637L38.5734 35.8476C38.7265 35.879 38.8849 35.8278 38.9907 35.7127L39.6327 35.0154L40.2748 35.7105C40.3802 35.826 40.5388 35.8772 40.692 35.8454L41.6213 35.6615L41.7319 36.6025C41.7503 36.7582 41.8484 36.8932 41.9909 36.9586L42.8506 37.3529L42.3879 38.1784C42.3114 38.315 42.3114 38.4815 42.3879 38.6181Z" fill="#65C466"/>
<path d="M39.6323 36.1506C38.3908 36.1506 37.3843 37.1571 37.3843 38.3987C37.3857 39.6396 38.3914 40.6452 39.6323 40.6467C40.8739 40.6467 41.8804 39.6402 41.8804 38.3987C41.8804 37.1571 40.8739 36.1506 39.6323 36.1506ZM39.6323 39.7475C38.8874 39.7475 38.2835 39.1436 38.2835 38.3987C38.2835 37.6537 38.8874 37.0499 39.6323 37.0499C40.3773 37.0499 40.9812 37.6537 40.9812 38.3987C40.9812 39.1436 40.3773 39.7475 39.6323 39.7475Z" fill="#65C466"/>
<path d="M38.7338 28.0576H31.54V28.9568H38.7338V28.0576Z" fill="#65C466"/>
<path d="M43.23 30.7551H27.0439V31.6543H43.23V30.7551Z" fill="#65C466"/>
<path d="M43.23 32.5537H27.0439V33.4529H43.23V32.5537Z" fill="#65C466"/>
<path d="M33.3376 38.3987H27.4927V39.2979H33.3376V38.3987Z" fill="#65C466"/>
<defs>
<filter id="filter0_d" x="0.837222" y="0.387271" width="68.6749" height="68.6749" filterUnits="userSpaceOnUse" color-interpolation-filters="sRGB">
<feFlood flood-opacity="0" result="BackgroundImageFix"/>
<feColorMatrix in="SourceAlpha" type="matrix" values="0 0 0 0 0 0 0 0 0 0 0 0 0 0 0 0 0 0 127 0"/>
<feOffset/>
<feGaussianBlur stdDeviation="6.93686"/>
<feColorMatrix type="matrix" values="0 0 0 0 0.870833 0 0 0 0 0.870833 0 0 0 0 0.870833 0 0 0 1 0"/>
<feBlend mode="normal" in2="BackgroundImageFix" result="effect1_dropShadow"/>
<feBlend mode="normal" in="SourceGraphic" in2="effect1_dropShadow" result="shape"/>
</filter>
</defs>
</svg>
