<svg width="27" height="27" viewBox="0 0 27 27" fill="none" xmlns="http://www.w3.org/2000/svg">
<path d="M22.982 17.2303C21.5304 15.7788 19.8027 14.7042 17.9177 14.0538C19.9366 12.6632 21.263 10.3361 21.263 7.70463C21.263 3.45631 17.8067 0 13.5584 0C9.31005 0 5.85374 3.45631 5.85374 7.70463C5.85374 10.3361 7.18013 12.6632 9.19911 14.0538C7.31408 14.7042 5.58637 15.7788 4.13483 17.2303C1.61771 19.7474 0.231445 23.0941 0.231445 26.6538H2.31378C2.31378 20.4535 7.35807 15.4093 13.5584 15.4093C19.7587 15.4093 24.803 20.4535 24.803 26.6538H26.8853C26.8853 23.0941 25.499 19.7474 22.982 17.2303ZM13.5584 13.3269C10.4582 13.3269 7.93607 10.8048 7.93607 7.70463C7.93607 4.60445 10.4582 2.08233 13.5584 2.08233C16.6585 2.08233 19.1807 4.60445 19.1807 7.70463C19.1807 10.8048 16.6585 13.3269 13.5584 13.3269Z" fill="white"/>
</svg>
